<?xml version="1.0" encoding="utf-8"?>
<!-- Generator: Adobe Illustrator 24.3.0, SVG Export Plug-In . SVG Version: 6.00 Build 0)  -->
<svg version="1.1" id="Layer_1" xmlns="http://www.w3.org/2000/svg" xmlns:xlink="http://www.w3.org/1999/xlink" x="0px" y="0px"
	 viewBox="0 0 159.1 211.8" style="enable-background:new 0 0 159.1 211.8;" xml:space="preserve">
<style type="text/css">
	.st0{fill:#007BFF;}
</style>
<g>
	<path class="st0" d="M158.9,200.8c-14.9,7.3-34.3,11-58.2,11c-30.8,0-55.3-9.2-73.4-27.7C9.1,165.6,0.1,141,0.1,110.3
		C0.1,78,10.2,51.5,30.4,31C50.6,10.4,76.7,0.2,108.7,0.2c20,0,36.7,2.6,50.2,7.8v42.1c-13.8-8.1-29.5-12.2-47-12.2
		c-20,0-36,6.4-47.9,19.2c-12,12.8-18,29.5-18,50.1c0,20.1,5.7,36.2,17,48.5c11.4,12.2,26.7,18.4,46.1,18.4
		c18.2,0,34.8-4.4,49.8-13.2V200.8z"/>
	<path class="st0" d="M89.6,105.9c0-6.6,2.5-12,7.5-16.2s11-6.3,18-6.3s13,2.2,17.8,6.5s7.3,9.7,7.3,16.1c0,6.8-2.4,12.3-7.3,16.4
		c-4.8,4.2-11,6.3-18.4,6.3c-6.9,0-12.7-2.2-17.6-6.5C92.1,117.9,89.6,112.4,89.6,105.9z"/>
</g>
</svg>
