<?xml version="1.0" encoding="utf-8"?>
<!-- Generator: Adobe Illustrator 24.3.0, SVG Export Plug-In . SVG Version: 6.00 Build 0)  -->
<svg version="1.1" id="Layer_1" xmlns="http://www.w3.org/2000/svg" xmlns:xlink="http://www.w3.org/1999/xlink" x="0px" y="0px"
	 viewBox="0 0 210 280" style="enable-background:new 0 0 210 280;" xml:space="preserve">
<style type="text/css">
	.st0{fill:#007BFF;}
</style>
<g>
	<path class="st0" d="M209.5,264.7c-19.5,9.6-45,14.4-76.3,14.4c-40.4,0-72.5-12.1-96.2-36.3C13.1,218.6,1.3,186.3,1.3,146
		c0-42.4,13.2-77.1,39.7-104c26.5-27,60.7-40.4,102.7-40.4c26.2,0,48.1,3.4,65.8,10.2v55.2c-18.1-10.6-38.7-16-61.6-16
		c-26.2,0-47.2,8.4-62.8,25.2C69.3,93.1,61.5,115,61.5,142c0,26.4,7.5,47.5,22.3,63.6c14.9,16,35,24.1,60.4,24.1
		c23.9,0,45.6-5.8,65.3-17.3V264.7z"/>
	<path class="st0" d="M115.4,140.3c0-6.5,2.5-11.9,7.4-16.1s10.9-6.2,17.8-6.2c6.9,0,12.9,2.2,17.6,6.4c4.8,4.3,7.2,9.6,7.2,16
		c0,6.7-2.4,12.2-7.2,16.3c-4.8,4.2-10.9,6.2-18.2,6.2c-6.8,0-12.6-2.2-17.4-6.4C117.9,152.2,115.4,146.7,115.4,140.3z"/>
</g>
</svg>
