<?xml version="1.0" standalone="no"?>
<!DOCTYPE svg PUBLIC "-//W3C//DTD SVG 20010904//EN"
 "http://www.w3.org/TR/2001/REC-SVG-20010904/DTD/svg10.dtd">
<svg version="1.0" xmlns="http://www.w3.org/2000/svg"
 width="700.000000pt" height="700.000000pt" viewBox="0 0 700.000000 700.000000"
 preserveAspectRatio="xMidYMid meet">
<metadata>
Created by potrace 1.14, written by Peter Selinger 2001-2017
</metadata>
<g transform="translate(0.000000,700.000000) scale(0.100000,-0.100000)"
fill="#000000" stroke="none">
<path d="M4127 6145 c-1 -2 -58 -5 -125 -9 -469 -24 -923 -166 -1288 -401
-246 -159 -500 -396 -670 -625 -94 -127 -129 -182 -201 -315 -98 -179 -213
-484 -247 -655 -42 -211 -48 -250 -61 -365 -19 -167 -24 -451 -11 -625 7 -104
9 -122 21 -210 3 -25 8 -57 9 -70 18 -143 86 -401 151 -567 234 -598 722
-1073 1325 -1288 135 -48 374 -110 465 -120 36 -3 139 -17 159 -21 119 -22
695 -21 826 0 14 3 54 7 90 10 36 4 75 8 85 10 11 2 43 7 70 10 104 14 304 59
427 97 107 33 310 111 328 126 5 5 7 993 2 993 -2 0 -60 -28 -130 -63 -70 -34
-146 -70 -169 -80 -95 -41 -315 -108 -403 -123 -14 -3 -32 -7 -40 -9 -8 -3
-33 -7 -55 -10 -22 -4 -47 -8 -55 -10 -8 -2 -49 -7 -90 -10 -41 -4 -93 -9
-115 -11 -56 -5 -288 -5 -360 1 -676 52 -1181 487 -1346 1160 -11 44 -22 100
-25 125 -3 25 -7 51 -10 59 -17 51 -24 386 -11 536 27 330 136 639 309 880 17
24 135 162 158 186 207 210 517 374 785 415 28 5 52 9 55 9 3 1 32 5 65 9 33
4 76 9 95 12 51 7 294 6 370 -1 134 -12 175 -18 290 -39 195 -35 451 -131 680
-253 8 -5 5 1031 -3 1044 -7 10 -198 76 -253 87 -11 2 -49 11 -85 20 -69 16
-86 19 -179 35 -60 11 -104 17 -195 27 -33 3 -67 8 -76 9 -49 10 -553 27 -562
20z"/>
<path d="M4275 4055 c-127 -20 -223 -61 -320 -137 -134 -106 -197 -234 -199
-402 -1 -107 6 -149 36 -219 97 -230 331 -368 610 -361 194 4 335 61 458 184
113 113 159 227 154 390 -4 157 -53 269 -164 372 -79 73 -82 76 -137 106 -37
20 -135 58 -156 60 -4 0 -29 4 -55 8 -74 11 -151 11 -227 -1z"/>
</g>
</svg>
