<?xml version="1.0" standalone="no"?>
<!DOCTYPE svg PUBLIC "-//W3C//DTD SVG 20010904//EN"
 "http://www.w3.org/TR/2001/REC-SVG-20010904/DTD/svg10.dtd">
<svg version="1.0" xmlns="http://www.w3.org/2000/svg"
 width="700.000000pt" height="700.000000pt" viewBox="0 0 700.000000 700.000000"
 preserveAspectRatio="xMidYMid meet">
<metadata>
Created by potrace 1.14, written by Peter Selinger 2001-2017
</metadata>
<g transform="translate(0.000000,700.000000) scale(0.100000,-0.100000)"
fill="#000000" stroke="none">
<path d="M3077 6424 c-1 -1 -46 -5 -100 -9 -53 -3 -107 -8 -120 -10 -12 -2
-47 -6 -77 -9 -30 -4 -68 -9 -85 -11 -426 -72 -749 -187 -1070 -382 -277 -169
-566 -428 -760 -683 -27 -36 -52 -67 -55 -70 -28 -26 -208 -325 -252 -420 -28
-60 -65 -143 -83 -185 -21 -50 -102 -293 -109 -326 -3 -13 -14 -60 -25 -104
-29 -119 -52 -251 -66 -380 -4 -33 -11 -89 -15 -125 -9 -71 -6 -648 4 -720 3
-25 8 -63 11 -86 3 -22 7 -52 10 -65 5 -36 29 -173 30 -179 1 -3 7 -32 14 -65
69 -325 211 -657 399 -930 172 -251 432 -504 682 -665 117 -75 323 -179 455
-229 98 -38 281 -95 345 -107 14 -3 45 -10 70 -15 25 -6 56 -13 70 -15 14 -2
48 -9 75 -14 28 -5 74 -12 104 -15 30 -4 62 -8 72 -10 126 -24 792 -25 940 0
13 2 53 6 88 10 36 3 81 8 100 11 39 6 197 32 246 40 179 32 596 169 651 214
12 11 16 1110 4 1110 -3 0 -10 -4 -16 -9 -15 -15 -243 -127 -324 -159 -165
-65 -397 -133 -504 -147 -27 -3 -52 -8 -55 -10 -3 -2 -28 -6 -56 -9 -27 -3
-71 -8 -97 -11 -120 -15 -418 -21 -503 -11 -22 3 -62 8 -90 11 -123 13 -287
51 -390 90 -38 15 -83 31 -99 37 -43 16 -181 94 -256 144 -104 69 -264 217
-329 304 -14 19 -29 37 -32 40 -34 29 -164 257 -214 375 -46 109 -104 316
-120 428 -3 27 -8 58 -11 70 -18 95 -24 427 -10 587 44 518 256 952 621 1268
215 187 548 334 851 377 209 30 567 27 759 -5 33 -6 76 -13 95 -16 200 -31
483 -127 685 -233 52 -27 97 -46 99 -43 2 4 3 265 2 581 l-1 574 -100 33
c-173 56 -376 104 -547 128 -109 16 -307 36 -408 42 -100 6 -498 12 -503 8z"/>
<path d="M5935 1819 c-220 -31 -432 -172 -518 -344 -79 -157 -84 -366 -13
-521 63 -137 203 -265 360 -328 207 -82 493 -61 686 51 87 51 191 156 228 229
55 111 66 159 67 289 0 142 -21 225 -83 321 -89 137 -267 263 -409 289 -16 3
-39 7 -53 10 -44 10 -203 12 -265 4z"/>
</g>
</svg>
