<?xml version="1.0" standalone="no"?>
<!DOCTYPE svg PUBLIC "-//W3C//DTD SVG 20010904//EN"
 "http://www.w3.org/TR/2001/REC-SVG-20010904/DTD/svg10.dtd">
<svg version="1.0" xmlns="http://www.w3.org/2000/svg"
 width="848.000000pt" height="848.000000pt" viewBox="0 0 848.000000 848.000000"
 preserveAspectRatio="xMidYMid meet">
<metadata>
Created by potrace 1.14, written by Peter Selinger 2001-2017
</metadata>
<g transform="translate(0.000000,848.000000) scale(0.100000,-0.100000)"
fill="#000000" stroke="none">
<path d="M5347 8474 c-1 -1 -74 -5 -162 -8 -209 -9 -298 -15 -415 -31 -19 -2
-55 -7 -80 -10 -25 -3 -56 -7 -70 -10 -14 -2 -41 -7 -60 -9 -19 -3 -46 -8 -60
-11 -13 -2 -42 -7 -64 -11 -22 -3 -43 -7 -46 -9 -3 -2 -23 -6 -45 -9 -74 -12
-347 -86 -481 -131 -241 -81 -511 -200 -682 -302 -41 -24 -75 -43 -78 -43 -2
0 -36 -21 -76 -47 -40 -27 -78 -50 -83 -53 -47 -23 -286 -204 -409 -310 -159
-136 -412 -393 -497 -505 -13 -16 -26 -32 -29 -35 -35 -28 -282 -382 -336
-480 -10 -19 -21 -37 -25 -40 -5 -5 -22 -36 -83 -155 -17 -33 -34 -61 -38 -63
-5 -2 -8 -8 -8 -14 0 -6 -15 -43 -34 -82 -40 -84 -104 -233 -112 -261 -1 -5
-14 -39 -28 -74 -14 -36 -26 -68 -26 -72 0 -4 -5 -20 -12 -36 -6 -15 -12 -32
-13 -38 0 -5 -4 -17 -8 -25 -3 -8 -12 -35 -18 -60 -16 -56 -13 -47 -28 -100
-7 -25 -15 -52 -16 -60 -2 -8 -15 -64 -30 -125 -24 -100 -45 -203 -60 -295 -3
-19 -8 -47 -10 -61 -9 -51 -31 -237 -40 -344 -19 -205 -25 -630 -11 -830 12
-185 22 -302 30 -345 3 -14 7 -47 11 -75 9 -75 34 -225 45 -270 5 -22 12 -53
14 -70 9 -61 19 -100 29 -112 5 -7 7 -13 4 -13 -5 0 8 -53 47 -190 68 -244
198 -551 336 -795 54 -95 205 -331 221 -345 3 -3 18 -23 34 -45 16 -22 34 -45
39 -50 6 -6 27 -30 46 -55 75 -99 306 -340 400 -420 14 -11 36 -31 50 -44 14
-12 61 -50 105 -84 44 -34 89 -70 101 -81 11 -10 30 -22 42 -25 11 -4 23 -13
26 -21 3 -8 12 -15 20 -15 8 0 16 -3 18 -8 3 -7 165 -112 173 -112 2 0 20 -11
39 -23 47 -32 387 -200 431 -213 10 -3 165 -60 195 -71 8 -4 18 -7 23 -8 4 -2
9 -4 12 -5 3 -1 10 -4 15 -5 6 -1 11 -3 13 -5 1 -1 9 -3 17 -5 8 -2 68 -20
133 -39 64 -19 133 -37 153 -41 20 -3 40 -8 45 -11 8 -4 164 -36 248 -50 18
-3 41 -7 50 -9 9 -1 41 -6 71 -10 30 -4 63 -9 72 -10 9 -2 48 -7 85 -10 37 -4
79 -8 93 -11 163 -26 893 -26 1170 0 25 3 78 7 118 11 41 3 88 7 105 10 18 2
53 7 79 9 26 3 76 10 110 15 35 5 81 12 102 16 21 3 48 7 60 10 19 4 64 12
121 20 11 2 20 4 20 5 0 1 7 3 15 5 175 34 470 113 545 144 24 11 186 71 200
75 14 4 82 34 131 57 22 10 45 19 51 19 35 0 36 14 37 820 1 435 -3 790 -8
790 -4 0 -45 -21 -90 -46 -160 -90 -411 -201 -596 -264 -36 -12 -72 -24 -80
-27 -8 -3 -21 -7 -29 -9 -8 -1 -35 -9 -60 -17 -57 -19 -128 -38 -161 -43 -14
-3 -34 -8 -45 -11 -21 -7 -34 -10 -78 -17 -16 -2 -50 -9 -75 -15 -26 -6 -63
-13 -82 -16 -19 -2 -46 -6 -60 -9 -14 -3 -47 -7 -75 -11 -47 -5 -67 -7 -175
-21 -66 -8 -650 -13 -650 -6 0 4 -17 7 -38 8 -55 1 -153 13 -230 28 -67 13
-80 15 -84 17 -2 0 -12 2 -23 3 -50 7 -329 88 -365 107 -28 14 -88 39 -94 39
-29 0 -366 191 -374 211 -2 5 -8 9 -14 9 -6 0 -24 11 -42 25 -17 14 -36 29
-41 33 -110 77 -309 279 -409 412 -22 30 -44 57 -47 60 -3 3 -27 39 -54 80
-26 41 -55 86 -65 100 -14 22 -137 268 -161 325 -17 38 -70 190 -74 211 -3 12
-11 40 -19 63 -9 22 -13 41 -11 41 3 0 0 12 -6 28 -10 23 -19 61 -45 182 -9
46 -19 104 -30 190 -2 14 -6 43 -8 65 -27 195 -28 628 -2 850 11 101 17 145
22 166 2 13 7 40 10 59 3 19 12 67 21 105 8 39 16 79 19 90 3 16 41 143 78
260 2 6 7 21 13 35 6 14 20 52 32 84 34 93 119 262 189 375 113 185 219 318
377 476 119 119 161 155 290 249 66 49 198 130 260 161 22 11 42 23 43 28 2 4
10 7 18 7 7 0 28 8 46 18 87 49 406 155 524 175 16 3 36 7 44 10 8 3 33 8 55
12 22 3 54 8 70 10 17 3 50 8 75 10 25 3 56 7 70 10 73 15 384 21 585 11 170
-9 245 -17 440 -48 72 -11 137 -22 145 -24 12 -3 71 -16 170 -39 8 -2 15 -4
15 -5 0 -1 7 -3 15 -5 210 -47 554 -185 809 -325 30 -16 57 -27 60 -25 8 9 4
1666 -5 1675 -12 12 -311 110 -335 110 -10 0 -20 4 -23 9 -3 4 -22 11 -43 14
-21 4 -76 15 -123 27 -88 21 -163 37 -215 45 -16 3 -52 10 -80 15 -75 14 -159
27 -235 35 -25 3 -54 7 -65 9 -28 5 -206 22 -345 31 -122 8 -598 23 -603 19z"/>
<path d="M5425 5115 c-160 -32 -256 -73 -400 -169 -70 -46 -198 -172 -241
-236 -44 -66 -97 -184 -110 -245 -20 -94 -24 -125 -24 -220 1 -107 1 -112 12
-170 31 -164 107 -311 222 -434 56 -58 201 -171 222 -171 7 0 14 -4 16 -8 8
-19 194 -94 267 -107 14 -3 37 -7 51 -10 58 -12 101 -16 196 -16 268 -1 476
58 664 188 80 56 218 196 245 249 11 21 25 44 32 51 6 7 17 30 23 50 7 21 17
44 23 51 5 6 6 12 2 12 -4 0 -3 6 3 13 6 6 11 15 11 20 1 4 1 8 2 10 3 10 8
36 25 130 7 37 7 208 0 252 -4 28 -19 92 -32 140 -3 11 -6 26 -6 33 -1 6 -5
12 -10 12 -4 0 -8 7 -8 15 0 66 -164 279 -290 377 -34 26 -148 98 -156 98 -2
0 -23 9 -47 19 -55 25 -152 57 -202 67 -22 4 -49 10 -60 12 -11 2 -87 5 -170
7 -125 2 -168 -1 -260 -20z"/>
</g>
</svg>
